<svg xmlns="http://www.w3.org/2000/svg" xmlns:xlink="http://www.w3.org/1999/xlink" version="1.0" x="0px" y="0px" viewBox="0 0 960 1200" enable-background="new 0 0 960 960" xml:space="preserve"><g><path fill="#000000" d="M670,499.992c0,5.5-4.5,10-10,10H300c-5.516,0-10-4.5-10-10v-40c0-5.5,4.484-10,10-10h360   c5.5,0,10,4.5,10,10V499.992z"/><path fill="#000000" d="M530,649.992c0,5.5-4.5,10-10,10h-80c-5.516,0-10-4.5-10-10v-40c0-5.5,4.484-10,10-10h80   c5.5,0,10,4.5,10,10V649.992z"/><path fill="#000000" d="M780,350.008c0,5.5-4.5,10-10,10H190c-5.516,0-10-4.5-10-10v-40c0-5.516,4.484-10,10-10h580   c5.5,0,10,4.484,10,10V350.008z"/></g><text x="0" y="975" fill="#000000" font-size="5px" font-weight="bold" font-family="'Helvetica Neue', Helvetica, Arial-Unicode, Arial, Sans-serif">Created by Wahyu Prihantoro</text><text x="0" y="980" fill="#000000" font-size="5px" font-weight="bold" font-family="'Helvetica Neue', Helvetica, Arial-Unicode, Arial, Sans-serif">from the Noun Project</text></svg>